<svg width="38" height="42" viewBox="0 0 38 42" fill="none" xmlns="http://www.w3.org/2000/svg">
<path d="M5.98161 32.4135C5.85634 32.3411 5.78501 32.2137 5.76364 32.0359M5.98161 32.4135L19.1087 39.9924C21.6826 41.4785 26.8412 42.0543 30.1105 36.3917C33.3798 30.7291 32.4936 25.8823 31.019 26.2774M5.98161 32.4135C8.53989 33.8905 24.1976 30.2157 31.019 26.2774M5.98161 32.4135L5.76364 32.0359M5.76364 32.0359C5.38986 28.9261 20.3075 10.428 29.3389 2.65701C38.8866 -5.55819 36.6014 19.2048 33.9266 23.8379C33.4673 24.6334 32.433 25.461 31.019 26.2774M5.76364 32.0359L1.97267 25.4689M6.05508 32.4973L1 29.1658" stroke="#3C1913"/>
<path d="M25.5448 32.0371C25.5412 32.0506 25.5273 32.0579 25.5146 32.0546C25.4932 32.0488 25.4805 32.0267 25.4862 32.0053C25.4955 31.9704 25.5307 31.9501 25.5656 31.9595C25.6218 31.9746 25.6549 32.0318 25.6398 32.0881C25.6156 32.1785 25.5222 32.2324 25.4318 32.2082C25.2852 32.1689 25.1982 32.0182 25.2375 31.8716C25.301 31.6346 25.5451 31.4936 25.7821 31.5571C26.1657 31.6599 26.3937 32.0548 26.2909 32.4384C26.1245 33.0598 25.4855 33.428 24.865 33.2617C23.86 32.9924 23.263 31.9584 23.5323 30.9534C23.9678 29.3279 25.641 28.3619 27.2665 28.7974C29.897 29.5023 31.46 32.2095 30.7552 34.84C29.6146 39.0968 25.2344 41.625 20.9784 40.4846C14.0911 38.6392 9.99986 31.5517 11.8451 24.6653C14.8309 13.522 26.298 6.90147 37.4413 9.8873" stroke="#3C1913" stroke-opacity="0.3" stroke-miterlimit="10"/>
</svg>
