<svg width="49" height="223" viewBox="0 0 49 223" fill="none" xmlns="http://www.w3.org/2000/svg">
<path d="M30.168 77.6035L30.168 425.604" stroke="#3C1913"/>
<path d="M20.1958 29.2621C20.2033 29.2751 20.1983 29.2912 20.1861 29.2982C20.1655 29.3101 20.139 29.303 20.1271 29.2824C20.1076 29.2488 20.119 29.2066 20.1526 29.1872C20.2068 29.1559 20.2755 29.1743 20.3068 29.2285C20.3571 29.3156 20.3271 29.4277 20.24 29.478C20.0986 29.5596 19.9179 29.5112 19.8363 29.3698C19.7044 29.1413 19.7828 28.8485 20.0113 28.7165C20.3811 28.503 20.8547 28.6299 21.0682 28.9998C21.414 29.5989 21.2082 30.3647 20.61 30.7101C19.6412 31.2696 18.4011 30.9372 17.8418 29.9683C16.9371 28.401 17.4748 26.3941 19.0417 25.4893C21.5775 24.025 24.8241 24.8951 26.2881 27.4313C28.6572 31.5355 27.2492 36.7888 23.1465 39.1579C16.5073 42.9918 8.00839 40.7135 4.17567 34.0738C-2.02621 23.3299 1.6585 9.57587 12.4005 3.37287" stroke="#3C1913" stroke-opacity="0.3" stroke-miterlimit="10"/>
<path d="M30.1666 77.6035L12.8868 16.0774M19.6385 41.4097C5.59723 42.2846 -8.05755 28.0415 8.81074 1.00018C36.9399 15.9846 32.236 35.1468 19.6385 41.4097Z" stroke="#3C1913" stroke-linecap="round" stroke-linejoin="round"/>
<path d="M30.1667 77.6035L40.2217 39.915M36.0492 55.5704C44.7266 56.1111 53.1652 47.3089 42.7406 30.5972C25.3569 39.8577 28.2639 51.7 36.0492 55.5704Z" stroke="#3C1913" stroke-linecap="round" stroke-linejoin="round"/>
<path d="M30.1657 113.604L13.5715 84.7313M21.6538 98.7733C13.4119 101.541 2.98269 95.2232 8.72674 76.383C27.9149 80.8286 28.172 93.0198 21.6538 98.7733Z" stroke="#3C1913" stroke-linecap="round" stroke-linejoin="round"/>
</svg>
