<svg width="375" height="609" viewBox="0 0 375 609" fill="none" xmlns="http://www.w3.org/2000/svg">
<path d="M103.334 168.626C103.334 168.375 103.54 168.184 103.776 168.184C104.173 168.184 104.497 168.508 104.497 168.905C104.497 169.553 103.982 170.068 103.334 170.068C102.289 170.068 101.45 169.229 101.45 168.184C101.45 166.506 102.819 165.137 104.497 165.137C107.221 165.137 109.429 167.345 109.429 170.068C109.429 174.47 105.851 178.048 101.45 178.048C94.3241 178.048 88.5383 172.262 88.5383 165.137C88.5383 153.594 97.9015 144.246 109.429 144.246C128.096 144.246 143.245 159.395 143.245 178.062C143.245 208.257 118.733 232.77 88.5383 232.77C39.6758 232.77 0.0146661 193.108 0.0146661 144.246C0.0146661 65.1739 64.1881 1.0152 143.245 1.0152C271.18 1.0152 375 104.85 375 232.77C375 439.762 207.007 607.755 0.0146661 607.755" stroke="#316D61" stroke-miterlimit="10"/>
</svg>
