<svg width="375" height="609" viewBox="0 0 375 609" fill="none" xmlns="http://www.w3.org/2000/svg">
<path d="M89.3776 232.77C89.0978 232.77 88.8034 232.77 88.5237 232.77M88.5237 232.77V178.062H143.231C143.231 178.283 143.231 178.519 143.231 178.74M88.5237 232.77H1.2885e-05M88.5237 232.77V144.246H1.2885e-05M109.429 144.246V178.062H143.246C143.246 177.886 143.246 177.709 143.246 177.532M109.444 144.246V165.137H88.5531H101.464V178.048V170.068H109.444H104.512V165.137V168.184H101.464H103.349V170.068V168.905H104.512H103.79V168.184V168.626H103.349M87.449 232.755C87.817 232.755 88.1703 232.755 88.5384 232.755V144.231H0.0147044H143.246V1.00037V232.755H375M1.2885e-05 232.77V607.755H374.985V232.77M1.2885e-05 232.77H374.985M1.2885e-05 232.77V144.246M374.985 232.77L374.985 1.01511H143.231M374.985 232.77H143.231V1.01511M143.231 1.01511V144.246H1.2885e-05M143.231 1.01511H1.2885e-05L1.2885e-05 144.246" stroke="#316D61" stroke-miterlimit="10"/>
</svg>
