<svg width="37" height="22" viewBox="0 0 37 22" fill="none" xmlns="http://www.w3.org/2000/svg">
<path d="M1.39062 11.0247L24.5553 11.0247M5.99724 11C7.9715 1.23901 20.2119 -5.4879 35.6112 11C20.2119 27.488 7.9715 20.7609 5.99724 11Z" stroke="#3C1913" stroke-linecap="round" stroke-linejoin="round"/>
<path d="M14.2066 13.58C14.1964 13.5828 14.1862 13.5764 14.1837 13.5668C14.1793 13.5505 14.189 13.5337 14.2053 13.5293C14.2318 13.5222 14.2586 13.5377 14.2657 13.5642C14.2772 13.607 14.252 13.6506 14.2092 13.6621C14.1404 13.6805 14.0693 13.6395 14.0509 13.5707C14.0209 13.4591 14.0872 13.3443 14.1988 13.3144C14.3792 13.2661 14.5651 13.3734 14.6134 13.5538C14.6917 13.8458 14.5181 14.1465 14.2261 14.2247C13.7531 14.3514 13.2672 14.0704 13.1406 13.598C12.9356 12.833 13.3901 12.0458 14.1551 11.8408C15.3925 11.5093 16.6662 12.2446 16.9977 13.482C17.5343 15.4845 16.3445 17.5453 14.342 18.0819C11.1016 18.9501 7.76766 17.0248 6.89955 13.7849C5.49473 8.54208 8.60993 3.14728 13.8522 1.74262C22.3349 -0.53031 31.064 4.50949 33.337 12.9922" stroke="#3C1913" stroke-opacity="0.5" stroke-miterlimit="10"/>
</svg>
