<svg width="375" height="609" viewBox="0 0 375 609" fill="none" xmlns="http://www.w3.org/2000/svg">
<g opacity="0.2">
<path d="M89.3776 232.77C89.0978 232.77 88.8034 232.77 88.5237 232.77M88.5237 232.77V178.062H143.231C143.231 178.283 143.231 178.519 143.231 178.74M88.5237 232.77H1.2885e-05M88.5237 232.77V144.246H1.2885e-05M109.429 144.246V178.062H143.246C143.246 177.886 143.246 177.709 143.246 177.532M109.444 144.246V165.137H88.5531H101.464V178.048V170.068H109.444H104.512V165.137V168.184H101.464H103.349V170.068V168.905H104.512H103.79V168.184V168.626H103.349M87.449 232.755C87.817 232.755 88.1703 232.755 88.5384 232.755V144.231H0.0147044H143.246V1.00037V232.755H375M1.2885e-05 232.77V607.755H374.985V232.77M1.2885e-05 232.77H374.985M1.2885e-05 232.77V144.246M374.985 232.77L374.985 1.01511H143.231M374.985 232.77H143.231V1.01511M143.231 1.01511V144.246H1.2885e-05M143.231 1.01511H1.2885e-05L1.2885e-05 144.246" stroke="#316D61" stroke-miterlimit="10"/>
<path d="M103.334 168.626C103.334 168.375 103.54 168.184 103.776 168.184C104.173 168.184 104.497 168.508 104.497 168.905C104.497 169.553 103.982 170.068 103.334 170.068C102.289 170.068 101.45 169.229 101.45 168.184C101.45 166.506 102.819 165.137 104.497 165.137C107.221 165.137 109.429 167.345 109.429 170.068C109.429 174.47 105.851 178.048 101.45 178.048C94.3241 178.048 88.5383 172.262 88.5383 165.137C88.5383 153.594 97.9015 144.246 109.429 144.246C128.096 144.246 143.245 159.395 143.245 178.062C143.245 208.257 118.733 232.77 88.5383 232.77C39.6758 232.77 0.0146661 193.108 0.0146661 144.246C0.0146661 65.1739 64.1881 1.0152 143.245 1.0152C271.18 1.0152 375 104.85 375 232.77C375 439.762 207.007 607.755 0.0146661 607.755" stroke="#316D61" stroke-miterlimit="10"/>
</g>
<path d="M82.1588 169.091C79.691 167.667 96.87 146.144 107.041 137.392C117.212 128.64 114.778 155.02 111.928 159.956C111.439 160.803 110.337 161.685 108.831 162.555M82.1588 169.091C85.9062 171.255 93.9494 175.899 96.143 177.165C98.8849 178.748 104.38 179.362 107.863 173.329C111.346 167.297 110.402 162.134 108.831 162.555M82.1588 169.091C84.8841 170.665 101.564 166.75 108.831 162.555M82.1588 169.091L77.8881 161.693" stroke="#3C1913"/>
<path d="M82.2385 169.181L76.8534 165.632" stroke="#3C1913"/>
<path d="M103 168.689C102.996 168.704 102.981 168.712 102.968 168.708C102.945 168.702 102.931 168.678 102.937 168.655C102.947 168.618 102.985 168.597 103.022 168.607C103.082 168.623 103.117 168.684 103.101 168.744C103.075 168.84 102.976 168.897 102.88 168.872C102.723 168.83 102.631 168.669 102.672 168.513C102.74 168.261 103 168.11 103.253 168.178C103.661 168.287 103.904 168.708 103.795 169.117C103.617 169.779 102.937 170.171 102.276 169.994C101.205 169.707 100.569 168.605 100.856 167.535C101.32 165.803 103.102 164.774 104.834 165.238C107.636 165.989 109.301 168.873 108.55 171.675C107.335 176.21 102.669 178.903 98.1353 177.688C90.7984 175.722 86.44 168.172 88.4057 160.836C91.5865 148.965 103.802 141.913 115.673 145.093" stroke="#3C1913" stroke-opacity="0.5" stroke-miterlimit="10"/>
</svg>
