<svg width="1920" height="1188" viewBox="0 0 1920 1188" fill="none" xmlns="http://www.w3.org/2000/svg">
<g opacity="0.2">
<path d="M1389.57 327.346C1390.36 327.346 1390.97 327.999 1390.97 328.744C1390.97 330.002 1389.94 331.027 1388.69 331.027C1386.64 331.027 1385.01 329.396 1385.01 327.346C1385.01 324.039 1387.66 321.383 1390.97 321.383C1396.28 321.383 1400.61 325.716 1400.61 331.027C1400.61 339.645 1393.62 346.633 1385.01 346.633C1371.08 346.633 1359.76 335.313 1359.76 321.383C1359.76 298.836 1378.06 280.527 1400.61 280.527C1437.13 280.527 1466.72 310.156 1466.72 346.633C1466.72 405.704 1418.78 453.641 1359.71 453.641C1264.16 453.641 1186.59 376.075 1186.59 280.527C1186.59 125.908 1312.1 0.405156 1466.72 0.405156C1716.93 0.405156 1919.95 203.474 1919.95 453.641C1919.95 858.475 1591.38 1187 1186.59 1187C531.594 1187 0 655.406 0 0.405156" stroke="#316D61" stroke-miterlimit="10"/>
<path d="M1186.59 283.183C1186.59 282.298 1186.59 281.366 1186.59 280.481M1186.59 280.481H1359.71V453.595C1359.01 453.595 1358.26 453.595 1357.57 453.595M1186.59 280.481V0.358596M1186.59 280.481H1466.72V0.358596M1466.72 346.633H1359.71V453.641C1360.27 453.641 1360.83 453.641 1361.39 453.641M1466.72 346.68H1400.61V280.574V321.43H1359.76H1385V346.68V331.073H1400.61H1390.97V321.43V327.393H1385H1388.69V331.073V328.791H1390.97H1389.57V327.393M1186.64 277.08C1186.64 278.245 1186.64 279.363 1186.64 280.527H1466.76V0.405085V453.641H1920H1186.64V1187M1186.59 0.358596H0V1186.95H1186.59M1186.59 0.358596V1186.95M1186.59 0.358596H1466.72M1186.59 1186.95H1919.95V453.595M1186.59 1186.95V453.595H1919.95M1919.95 453.595H1466.72V0.358596M1919.95 453.595V0.358596H1466.72" stroke="#316D61" stroke-miterlimit="10"/>
</g>
<path d="M1348.27 328.807C1343.48 326.04 1376.84 284.246 1396.59 267.252C1416.34 250.258 1411.61 301.483 1406.08 311.067C1405.13 312.713 1402.99 314.425 1400.06 316.114M1348.27 328.807C1355.55 333.008 1371.16 342.025 1375.42 344.485C1380.75 347.559 1391.42 348.75 1398.18 337.036C1404.95 325.322 1403.11 315.296 1400.06 316.114M1348.27 328.807C1353.56 331.862 1385.95 324.26 1400.06 316.114M1348.27 328.807L1339.98 314.441" stroke="#3C1913" stroke-width="1.2"/>
<path d="M1348.42 328.98L1337.97 322.088" stroke="#3C1913" stroke-width="1.2"/>
<path d="M1388.73 328.026C1388.72 328.054 1388.7 328.069 1388.67 328.062C1388.63 328.05 1388.6 328.005 1388.61 327.96C1388.63 327.888 1388.7 327.846 1388.78 327.866C1388.89 327.897 1388.96 328.015 1388.93 328.132C1388.88 328.319 1388.69 328.43 1388.5 328.38C1388.2 328.299 1388.02 327.987 1388.1 327.684C1388.23 327.194 1388.73 326.902 1389.22 327.033C1390.02 327.246 1390.49 328.063 1390.28 328.856C1389.93 330.142 1388.61 330.903 1387.33 330.559C1385.25 330.002 1384.01 327.863 1384.57 325.784C1385.47 322.422 1388.93 320.424 1392.29 321.325C1397.74 322.783 1400.97 328.383 1399.51 333.824C1397.15 342.63 1388.09 347.86 1379.29 345.501C1365.04 341.683 1356.58 327.022 1360.39 312.777C1366.57 289.726 1390.29 276.03 1413.34 282.207" stroke="#3C1913" stroke-opacity="0.5" stroke-miterlimit="10"/>
</svg>
