<svg width="85" height="34" viewBox="0 0 85 34" fill="none" xmlns="http://www.w3.org/2000/svg">
<g opacity="0.9">
<path d="M24.6973 21.886C24.7084 21.8963 24.7254 21.8952 24.7351 21.8848C24.7516 21.8672 24.7507 21.8394 24.7331 21.823C24.7045 21.7961 24.6604 21.7975 24.6335 21.8262C24.5902 21.8724 24.5925 21.9443 24.6387 21.9876C24.7129 22.0572 24.8302 22.0534 24.8998 21.9792C25.0126 21.8587 25.0065 21.6696 24.8861 21.5567C24.6915 21.3743 24.3851 21.3842 24.2026 21.5788C23.9073 21.8938 23.9233 22.3894 24.2383 22.6847C24.7486 23.1631 25.55 23.1366 26.0278 22.627C26.8015 21.8016 26.7596 20.504 25.9343 19.7303C24.5993 18.4788 22.4996 18.5466 21.2481 19.8816C19.2229 22.0419 19.3326 25.4393 21.4929 27.4645C24.9889 30.7417 30.4853 30.5636 33.762 27.0683C39.0645 21.412 38.7767 12.5182 33.121 7.21636C23.9693 -1.36278 9.57914 -0.898126 1 8.25353" stroke="#3C1913" stroke-opacity="0.5" stroke-miterlimit="10"/>
<path d="M60.4702 21.886C60.4592 21.8963 60.4422 21.8952 60.4324 21.8848C60.4159 21.8672 60.4168 21.8394 60.4344 21.823C60.463 21.7961 60.5072 21.7975 60.534 21.8262C60.5774 21.8724 60.575 21.9443 60.5288 21.9876C60.4546 22.0572 60.3373 22.0534 60.2678 21.9792C60.1549 21.8587 60.161 21.6696 60.2814 21.5567C60.476 21.3743 60.7825 21.3842 60.9649 21.5788C61.2603 21.8938 61.2443 22.3894 60.9292 22.6847C60.4189 23.1631 59.6175 23.1366 59.1397 22.627C58.366 21.8016 58.4079 20.504 59.2333 19.7303C60.5683 18.4788 62.668 18.5466 63.9195 19.8816C65.9446 22.0419 65.8349 25.4393 63.6746 27.4645C60.1786 30.7417 54.6822 30.5636 51.4056 27.0683C46.1031 21.412 46.3909 12.5182 52.0466 7.21636C61.1982 -1.36278 75.5884 -0.898126 84.1675 8.25353" stroke="#3C1913" stroke-opacity="0.5" stroke-miterlimit="10"/>
<path d="M42.5398 14.0994C42.5398 14.1007 42.5398 14.102 42.5398 14.1033V14.0994ZM42.5398 14.0994C42.5396 13.9245 42.5259 13.7486 42.4992 13.5718M42.5398 14.0994C38.509 15.8822 29.0989 19.9129 23.7042 21.7731C22.6164 22.1482 21.6133 22.4507 20.6812 22.665M42.5398 14.0994C42.5399 14.0993 42.5397 14.0994 42.5398 14.0994ZM42.5398 14.0994C39.7492 17.5101 34.1219 25.6334 33.9358 30.8421C33.7033 37.3531 15.7979 27.51 20.6812 22.665M42.5398 14.0994L42.4992 13.5718M42.4992 13.5718C41.5671 7.39253 24.7738 0.173032 13.4726 1.07712C1.84575 2.00727 0.450529 4.56551 1.14814 7.82087C1.84575 11.0762 6.49634 9.68117 9.98448 16.6573C12.9099 22.5081 15.8353 23.779 20.6812 22.665M42.4992 13.5718L42.3917 12.1618L39.3687 3.55791M42.3911 14.0994C42.3911 14.1007 42.3911 14.102 42.3911 14.1033V14.0994ZM42.3911 14.0994C42.3913 13.9245 42.405 13.7486 42.4317 13.5718M42.3911 14.0994C46.422 15.8822 55.832 19.9129 61.2267 21.7731C62.3146 22.1482 63.3177 22.4507 64.2497 22.665M42.3911 14.0994C42.391 14.0993 42.3912 14.0994 42.3911 14.0994ZM42.3911 14.0994C45.1817 17.5101 50.8091 25.6334 50.9951 30.8421C51.2276 37.3531 69.133 27.51 64.2497 22.665M42.3911 14.0994L42.4317 13.5718M42.4317 13.5718C43.3638 7.39253 60.1572 0.173032 71.4583 1.07712C83.0852 2.00727 84.4804 4.56551 83.7828 7.82087C83.0852 11.0762 78.4346 9.68117 74.9464 16.6573C72.021 22.5081 69.0956 23.779 64.2497 22.665M42.4317 13.5718L42.5393 12.1618L45.5622 3.55791" stroke="#3C1913"/>
</g>
</svg>
