<svg width="4" height="4" viewBox="0 0 4 4" fill="none" xmlns="http://www.w3.org/2000/svg">
<path d="M3.16797 2C3.16797 2.29667 3.08 2.58668 2.91517 2.83335C2.75035 3.08003 2.51608 3.27229 2.24199 3.38582C1.9679 3.49935 1.66631 3.52906 1.37533 3.47118C1.08436 3.4133 0.817088 3.27044 0.607309 3.06066C0.39753 2.85088 0.254669 2.58361 0.196792 2.29263C0.138914 2.00166 0.168619 1.70006 0.28215 1.42597C0.395682 1.15189 0.587941 0.917617 0.834615 0.752795C1.08129 0.587973 1.3713 0.5 1.66797 0.5C2.06579 0.5 2.44732 0.658035 2.72863 0.93934C3.00993 1.22064 3.16797 1.60218 3.16797 2Z" fill="#3C1913"/>
</svg>
