<svg width="200" height="266" viewBox="0 0 200 266" fill="none" xmlns="http://www.w3.org/2000/svg">
<path d="M143.195 123.027C143.195 123.027 143.199 123.06 143.199 123.074C143.199 124.602 141.898 125.847 140.295 125.847C138.691 125.847 137.428 124.64 137.39 123.145L134.004 123.155C133.726 123.155 133.495 122.957 133.491 122.716L133.481 121.41C133.476 121.165 133.707 120.967 133.99 120.967L142.879 120.924C143.157 120.924 143.388 121.122 143.393 121.363L143.402 122.669C143.407 122.815 143.322 122.947 143.19 123.027H143.195Z" fill="#FBFAF8"/>
<path d="M105.713 265.265H11.7176C5.25757 265.265 0 260.177 0 253.924V103.454C0 53.118 42.2964 12.1702 94.2874 12.1702H103.992C105.151 12.1702 106.095 13.0803 106.095 14.2072C106.095 15.3342 105.151 16.2443 103.992 16.2443H94.2874C44.6163 16.2443 4.20606 55.3672 4.20606 103.454V253.92C4.20606 257.928 7.57279 261.186 11.7128 261.186H105.713C155.384 261.186 195.794 222.063 195.794 173.976V15.0654C195.794 13.9385 196.737 13.0284 197.897 13.0284C199.057 13.0284 200 13.9385 200 15.0654V173.976C200 224.312 157.704 265.26 105.713 265.26V265.265Z" fill="#FBFAF8"/>
<path d="M174.566 30.2629H100.257C55.3908 30.2629 18.8895 65.5994 18.8895 109.042V240.085C18.8895 244.164 22.3129 247.479 26.5236 247.479H100.29C145.156 247.479 181.657 212.137 181.657 168.7V37.1284C181.657 33.342 178.479 30.2629 174.566 30.2629ZM44.4937 243.404H43.0697C41.2873 243.404 39.8208 241.957 39.8397 240.17C39.8868 235.624 41.16 231.267 42.8669 226.014C43.1545 225.142 43.4422 224.298 43.7487 223.478C44.8238 220.559 46.0733 217.829 47.4643 215.358C52.6087 206.224 59.1819 201.283 66.1417 196.049C73.2524 190.701 80.6083 185.175 86.4223 174.952C91.0998 166.719 92.5239 159.477 92.571 155.289C92.5805 154.379 93.0614 153.54 93.8206 153.035C98.0172 150.249 100.62 147.089 101.587 143.633C101.672 143.336 101.888 142.549 102.12 126.842V126.733C102.068 125.366 102.369 124.385 102.954 124.036C103.412 123.763 104.152 123.824 104.845 124.192C105.199 124.381 106.359 125.116 106.373 126.606C106.382 127.592 106.241 129.313 106.076 131.307C105.383 139.701 104.223 153.747 109.914 159.896C111.003 161.075 112.177 162.254 113.413 163.409L113.729 163.706C117.845 173.967 104.538 197.661 85.333 207.497L82.9989 208.686C73.5164 213.5 62.7702 218.951 55.0371 229.174C52.4154 232.635 50.3124 236.388 48.6479 240.575C47.9736 242.282 46.3279 243.404 44.4937 243.404ZM120.75 71.8095C114.37 71.0126 100.894 70.6495 89.3929 79.1371C81.1694 85.201 75.6336 94.5467 72.8516 107.028C72.6818 107.806 71.5596 107.768 71.4464 106.981C70.376 99.3799 70.6024 90.4256 75.5535 77.0859C80.448 63.8925 90.5764 55.0418 105.651 50.7698C124.164 45.5216 145.953 48.6715 158.854 53.9903C162.65 55.5511 164.456 59.9128 162.919 63.7227C161.561 67.0848 159.91 70.9655 158.519 73.9927C157.732 75.7185 155.577 76.3409 154.007 75.2753C142.775 67.6365 130.459 67.4195 124.649 69.4C122.9 69.9941 121.575 70.8193 120.75 71.8095ZM74.9782 125.974C74.964 125.852 74.9546 125.734 74.9358 125.611H74.9876C75.4261 104.92 81.1175 90.3831 91.9062 82.4001C101.568 75.2564 113.144 75.1715 119.213 75.7704C119.312 75.7798 119.411 75.7892 119.505 75.7987C120.311 75.8788 121.009 75.9731 121.584 76.0627C122.098 76.1429 122.513 76.2183 122.815 76.2749C123.018 76.289 123.216 76.3032 123.414 76.3221H123.419C146.335 78.2365 152.701 94.7636 154.384 101.912C155.719 107.575 155.384 110.772 155.03 114.158C154.804 116.284 154.573 118.482 154.742 121.245C154.879 124.437 154.907 127.12 154.926 128.789C154.94 129.737 155.011 130.666 155.077 131.439C155.238 133.424 155.304 134.938 155.313 136.065C154.681 135.594 153.781 134.915 153.535 134.57C153.163 127.752 151.536 123.324 150.753 121.193C150.64 120.891 150.546 120.641 150.48 120.434L150.319 120.075C150.239 119.939 142.167 106.316 120.203 114.441C117.68 115.374 116.709 116.822 116.336 117.873C115.69 119.717 116.473 121.344 116.737 121.815C121.589 131.472 130.987 132.076 137.206 132.472L138.079 132.529C141.912 132.793 142.087 134.584 142.087 134.882V134.962L142.167 162.532L142.054 162.551L142.153 174.089C142.171 176.249 139.781 177.555 137.975 176.381C137.404 176.008 136.82 175.631 136.225 175.249L135.744 174.938C130.666 171.652 123.772 167.191 117.619 161.665L116.959 161.061C115.572 159.793 114.257 158.482 113.05 157.176C108.561 152.328 109.673 138.866 110.268 131.633C110.451 129.454 110.593 127.733 110.579 126.564C110.555 124.107 109.136 121.834 106.877 120.627C104.85 119.543 102.501 119.524 100.743 120.571C99.6251 121.24 97.7767 122.938 97.9135 126.832C97.8097 133.726 97.6353 141.507 97.4985 142.662C96.6262 145.656 93.83 148.476 89.1901 151.046C83.6072 154.129 76.6286 156.129 71.7624 157.26C70.4138 157.572 67.3064 158.496 64.8544 159.255H64.8308C64.0057 159.514 63.2701 158.675 63.6284 157.888C69.9281 144.086 75.4639 130.968 74.9782 125.974ZM150.244 148.315L151.05 149.117V149.343L150.796 149.645C150.423 150.088 150.418 150.73 150.786 151.173C150.951 151.376 151.036 151.626 151.036 151.876C151.036 152.125 150.942 152.389 150.763 152.597C149.207 154.356 148.471 155.483 149.758 157.473C149.862 157.628 149.985 157.817 150.112 158.057L150.22 158.255C151.107 159.892 151.046 160.09 150.197 160.717C149.655 161.122 148.938 161.405 148.132 161.542L147.929 161.575C147.113 161.707 146.368 161.08 146.368 160.255L146.288 135.061C146.302 134.561 146.245 132.75 144.77 131.105C143.379 129.549 141.224 128.662 138.371 128.469L137.484 128.407C131.293 128.011 124.277 127.563 120.5 119.986L120.424 119.849C120.424 119.849 120.217 119.458 120.325 119.175C120.443 118.868 120.957 118.519 121.707 118.246C139.205 111.767 145.736 120.655 146.552 121.914C146.618 122.103 146.698 122.315 146.788 122.56C147.509 124.527 149.018 128.62 149.339 134.924C149.395 135.961 149.909 136.801 150.65 137.555C151.126 138.046 151.088 138.833 150.551 139.257C150.103 139.611 149.735 140.05 149.504 140.596C149.122 141.507 149.009 142.945 150.65 144.633C151.003 145.001 151.343 145.326 151.659 145.628C151.795 145.755 151.951 145.906 152.102 146.052C152.031 146.095 151.956 146.142 151.876 146.194L151.234 146.585C151.027 146.708 150.683 146.934 150.357 147.146C149.956 147.41 149.9 147.981 150.244 148.315ZM68.5701 135.414C65.7833 143.176 61.1152 153.337 58.8848 158.199C57.9276 160.269 57.3429 161.551 57.027 162.395C56.7629 163.112 56.3103 163.739 55.7114 164.211C51.4205 167.629 44.3569 173.509 38.8542 180.95C37.9347 182.195 35.959 181.431 36.1052 179.894C37.5386 164.682 43.1027 152.257 52.7361 142.832C57.5127 138.149 62.4496 135.127 66.1794 133.283C67.5704 132.595 69.0935 133.953 68.5701 135.414ZM37.2415 191.946C42.2445 180.097 54.0139 170.807 59.6676 166.342C60.5258 165.663 61.2 165.135 61.7046 164.706H61.7093L62.9919 164.121C63.9632 163.81 65.043 163.47 66.1276 163.14C69.1265 162.211 71.7246 161.457 72.7431 161.221C75.9024 160.481 79.9104 159.396 83.9326 157.892C85.9884 157.124 88.0632 158.948 87.5539 161.085C86.7853 164.319 85.3425 168.403 82.7396 172.986C77.3453 182.473 70.6495 187.504 63.5624 192.833C56.5696 198.09 49.3363 203.527 43.7675 213.41C43.3809 214.094 43.0037 214.797 42.6406 215.518C41.9003 216.98 39.8397 217.102 38.9815 215.702C34.3511 208.148 33.7616 200.184 37.2415 191.946ZM56.4564 243.404C54.3157 243.404 52.8775 241.174 53.7923 239.241C55.0984 236.492 56.6309 233.955 58.4322 231.578C65.5853 222.124 75.4309 217.126 84.9511 212.293L87.2993 211.1C103.157 202.975 116.251 185.439 118.397 171.901C118.661 170.256 120.594 169.492 121.933 170.487C125.116 172.859 128.389 175.056 131.713 177.22C132.425 177.687 132.944 178.394 133.189 179.21C139.46 200.358 130.605 215.881 106.175 226.623C101.874 228.513 91.0008 234.375 80.6413 243.032L80.9714 243.404H56.4564ZM177.451 168.7C177.451 209.893 142.836 243.404 100.29 243.404H90.4727C89.2797 243.404 88.7799 241.867 89.7513 241.169C97.5268 235.539 104.675 231.748 107.915 230.329C131.369 220.017 141.747 204.937 138.871 185.42C138.649 183.921 140.361 182.912 141.558 183.836C142.063 184.223 142.511 184.59 142.902 184.944L145.199 187.005C145.68 187.438 146.448 187.094 146.448 186.448L146.382 165.97L148.848 165.555C150.324 165.305 151.673 164.753 152.757 163.951C156.539 161.141 154.719 157.789 153.946 156.36L153.842 156.176C153.747 155.997 153.653 155.836 153.568 155.695C153.818 155.407 154.144 155.044 154.426 154.728C155.209 153.856 155.572 152.804 155.469 151.682C155.388 150.824 155.044 150.041 154.625 149.381C154.61 149.353 154.615 149.32 154.643 149.301C155.591 148.65 156.525 147.768 156.671 146.486C156.855 144.864 155.714 143.775 154.61 142.723C154.412 142.534 154.2 142.332 153.979 142.115C154.516 141.973 155.223 141.86 155.846 141.832L155.836 141.653C156.534 141.936 157.232 141.851 157.741 141.62C159.132 140.993 159.986 139.922 159.269 131.114C159.208 130.36 159.147 129.553 159.132 128.681C159.114 127.054 159.085 124.333 158.944 121.042C158.793 118.567 159 116.624 159.213 114.568C159.59 111.008 159.976 107.321 158.486 101.007C155.176 86.9645 145.401 77.1802 131.604 73.5872C130.911 73.408 131.039 72.3895 131.751 72.3801C138.819 72.2622 148.165 74.9735 155.794 81.9333L156.803 82.7868L157.996 82.3954C158.967 82.0795 159.807 81.806 164.72 70.31C166.413 66.3539 169.369 59.1112 169.718 57.0883C169.93 55.8576 169.402 55.1692 168.921 54.8108C158.515 47.0447 129.572 39.7454 104.472 46.8608C88.2612 51.4535 76.8926 61.4264 71.5973 75.7091C64.3027 95.3672 66.7877 106.495 68.9803 116.313C69.7348 119.698 70.4515 122.9 70.7863 126.361C70.7863 126.385 70.791 126.408 70.791 126.432C70.791 126.757 70.5788 127.059 70.2582 127.158C67.33 128.11 58.4746 131.486 49.9069 139.804C40.547 148.891 29.8244 165.833 31.7576 195.011C29.1265 204.909 31.6822 214.382 39.3823 223.232C39.2031 223.742 39.0286 224.26 38.8542 224.793C37.1331 230.098 35.7656 234.785 35.6431 239.736C35.5912 241.768 33.9691 243.404 31.9368 243.404H26.5236C24.6328 243.404 23.0956 241.914 23.0956 240.085V109.042C23.0956 67.8486 57.7107 34.3369 100.257 34.3369H174.566C176.159 34.3369 177.451 35.5865 177.451 37.1284V168.7Z" fill="#FBFAF8"/>
<path d="M120.542 1.62678V22.2091C120.542 22.8976 119.958 23.4587 119.246 23.4587H117.803C117.086 23.4587 116.506 22.8976 116.506 22.2091V4.48426L114.12 5.73382C113.766 5.91772 113.351 5.93658 112.984 5.77626C112.616 5.62065 112.347 5.31416 112.248 4.93693L112.041 4.15419C111.894 3.59307 112.163 3.01308 112.687 2.7396L116.963 0.5234C117.152 0.424378 117.364 0.37251 117.576 0.37251H119.246C119.958 0.37251 120.542 0.938347 120.542 1.62678Z" fill="#FBFAF8"/>
<path d="M135.971 0C131.307 0 127.658 3.66851 127.658 8.35082C127.658 12.5616 130.713 15.6171 134.919 15.6171C136.692 15.6171 138.258 15.1173 139.531 14.1554C139.036 15.834 138.192 17.1967 137.013 18.2341C135.834 19.3139 134.283 20.0071 132.552 20.2381C131.892 20.2994 131.34 20.3513 130.864 20.3607C130.147 20.3796 129.586 20.9266 129.586 21.615V22.5533C129.586 22.8976 129.728 23.2135 129.978 23.454C130.218 23.685 130.534 23.8076 130.874 23.8076H130.897C131.59 23.7982 132.312 23.7322 133.014 23.6284C135.655 23.3361 138.182 22.2044 139.946 20.5305C141.813 18.7858 144.034 15.5039 144.034 9.81257C144.034 4.12118 140.87 0 135.971 0ZM135.726 3.296C139.46 3.296 139.861 7.59165 139.861 9.44006C139.861 9.78428 139.8 10.0436 139.653 10.2652C138.871 11.5572 137.362 12.3258 135.617 12.3258C133.274 12.3258 131.76 10.6849 131.76 8.14806C131.76 5.29058 133.391 3.296 135.726 3.296Z" fill="#FBFAF8"/>
<path d="M156.52 1.62678V22.2091C156.52 22.8976 155.94 23.4587 155.223 23.4587H153.781C153.068 23.4587 152.489 22.8976 152.489 22.2091V4.48426L150.098 5.73382C149.744 5.91772 149.329 5.93658 148.961 5.77626C148.594 5.62065 148.325 5.31416 148.226 4.93693L148.023 4.15419C147.877 3.59307 148.141 3.01308 148.664 2.7396L152.946 0.5234C153.135 0.424378 153.342 0.37251 153.554 0.37251H155.223C155.94 0.37251 156.52 0.938347 156.52 1.62678Z" fill="#FBFAF8"/>
<path d="M178.96 16.7064C178.96 20.2523 176.23 23.8312 170.124 23.8312C168.176 23.8312 166.092 23.3738 164.541 22.6099C163.97 22.327 163.702 21.6669 163.918 21.0727L164.244 20.1768C164.366 19.8373 164.635 19.5638 164.975 19.4318C165.305 19.2998 165.687 19.3045 166.012 19.4554C166.625 19.743 168.247 20.4032 170.091 20.4032C171.675 20.4032 172.887 19.9976 173.703 19.196C174.368 18.5406 174.735 17.6117 174.716 16.6451C174.688 13.7593 171.925 12.7313 169.355 12.7313H168.403C167.691 12.7313 167.111 12.1702 167.111 11.4771V10.7273C167.111 10.0342 167.691 9.47306 168.403 9.47306H169.355C171.185 9.47306 173.91 8.61488 173.91 6.24779C173.91 4.45597 172.646 3.42803 170.44 3.42803C168.907 3.42803 167.559 4.01745 166.894 4.3711C166.568 4.54085 166.182 4.56442 165.833 4.43711C165.474 4.30508 165.192 4.02688 165.064 3.67794L164.786 2.93764C164.574 2.36709 164.814 1.73052 165.357 1.42402C166.936 0.53283 169.058 0 171.039 0C175.905 0 178.083 2.89992 178.083 5.77154C178.083 7.96416 176.895 9.78427 174.778 10.9065C177.357 11.8684 178.96 14.0375 178.96 16.7064Z" fill="#FBFAF8"/>
</svg>
