<svg width="144" height="22" viewBox="0 0 144 22" fill="none" xmlns="http://www.w3.org/2000/svg">
<path d="M20.8024 0.154927C20.214 0.154927 20.1823 0.15493 19.904 0.711411L13.0521 15.0598L11.8753 17.6936L10.727 15.0914L4.80517 2.69704C3.90677 0.806266 3.13174 0.154927 1.67343 0.154927H0V0.464789C0.838294 0.464789 1.39505 1.14457 1.39505 2.32394V21.8451H3.06847V6.35211L3.00837 2.38718L11.5653 20.2357H12.217L20.7423 2.38718L20.679 6.35211V21.8451H22.3524V0.154927H20.8024Z" fill="#3C1913"/>
<path d="M36.9862 0.154927H35.1261L25.9175 21.8451H27.7776L30.1628 16.2075C30.4127 15.6479 30.4443 15.6479 31.0327 15.6479H41.0764C41.4898 15.6479 41.7798 15.8344 41.9464 16.2075L44.3315 21.8451H46.1916L36.9862 0.154927ZM31.0011 14.1934L36.0562 2.20063L41.1081 14.1934H31.0011Z" fill="#3C1913"/>
<path d="M61.322 14.7183C60.8855 14.1302 60.6071 13.7571 60.2655 13.5421C64.2671 12.7358 65.7539 10.1337 65.7539 6.90859C65.7539 2.57056 63.5522 0.154927 57.352 0.154927H48.3617V0.464789C49.2 0.464789 49.7567 1.14457 49.7567 2.32394V21.8451H51.4618V13.8204H57.352C58.4054 13.8204 58.7154 14.0385 59.0254 14.4717L64.1406 21.4751C64.3283 21.7218 64.5771 21.8451 64.8872 21.8451H66.5606L61.322 14.7183ZM57.8803 12.3627H51.4618V1.61252H57.8803C61.9421 1.61252 64.0489 3.34521 64.0489 6.90859C64.0489 10.472 61.9705 12.3627 57.8803 12.3627Z" fill="#3C1913"/>
<path d="M70.8976 0.154927H69.5025V0.464789C70.3408 0.464789 70.8976 1.14457 70.8976 2.32394V21.8451H72.6026V1.61252C72.5742 0.743022 71.8592 0.154927 70.8976 0.154927Z" fill="#3C1913"/>
<path d="M94.4615 0.154927V15.6479L94.6166 19.6476L82.6179 2.69704C81.3462 0.897959 80.5079 0.154927 79.1129 0.154927H77.7178V0.464789C78.5561 0.464789 79.1129 1.14457 79.1129 2.32394V21.8451H80.8179V6.35211L80.6945 2.94366L93.8099 21.4751C93.9955 21.7218 94.2433 21.8451 94.5533 21.8451H96.1666V0.154927H94.4615Z" fill="#3C1913"/>
<path d="M111.262 0C105.372 0 101.589 2.57056 101.589 8.2745V13.7287C101.589 19.4294 105.372 22 111.262 22C117.152 22 120.936 19.4294 120.936 13.7287V8.2745C120.936 2.57056 117.152 0 111.262 0ZM119.231 13.6654C119.323 18.4999 116.286 20.5456 111.262 20.5456C106.239 20.5456 103.294 18.4999 103.294 13.6654V8.33458C103.294 3.50014 106.239 1.45443 111.262 1.45443C116.286 1.45443 119.231 3.50014 119.231 8.33458V13.6654Z" fill="#3C1913"/>
<path d="M142.883 0.154927C142.573 0.154927 142.357 0.299315 142.235 0.588096L136.126 14.7183L133.861 20.2958L131.568 14.7183L125.801 1.39436C125.431 0.524855 124.934 0.154927 124.036 0.154927H122.641V0.464789C123.261 0.464789 123.786 1.02126 124.346 2.32394L132.776 21.8451H134.636L144 0.154927H142.883Z" fill="#3C1913"/>
</svg>
