<svg width="350" height="48" viewBox="0 0 350 48" fill="none" xmlns="http://www.w3.org/2000/svg">
<path d="M272.5 30.001L-176.5 30.0009" stroke="#3C1913"/>
<path d="M320.843 20.0317C320.83 20.0392 320.814 20.0343 320.807 20.022C320.795 20.0014 320.802 19.9749 320.823 19.963C320.857 19.9436 320.899 19.9549 320.918 19.9885C320.95 20.0428 320.931 20.1114 320.877 20.1428C320.79 20.193 320.678 20.163 320.627 20.0759C320.546 19.9346 320.594 19.7538 320.736 19.6722C320.964 19.5403 321.257 19.6188 321.389 19.8472C321.602 20.217 321.476 20.6906 321.106 20.9041C320.507 21.2499 319.741 21.0441 319.395 20.4459C318.836 19.4771 319.168 18.2371 320.137 17.6778C321.704 16.7731 323.711 17.3107 324.616 18.8777C326.08 21.4134 325.21 24.66 322.674 26.124C318.57 28.4932 313.317 27.0852 310.948 22.9824C307.114 16.3432 309.392 7.84433 316.032 4.01161C326.776 -2.19027 340.53 1.49444 346.733 12.2364" stroke="#3C1913" stroke-opacity="0.5" stroke-miterlimit="10"/>
<path d="M272.5 30.0006L334.026 12.7208M308.694 19.4724C307.819 5.43122 322.062 -8.22356 349.103 8.64472C334.119 36.7739 314.957 32.07 308.694 19.4724Z" stroke="#3C1913" stroke-linecap="round" stroke-linejoin="round"/>
<path d="M272.5 30.0007L310.189 40.0557M294.533 35.8831C293.992 44.5606 302.795 52.9992 319.506 42.5746C310.246 25.1909 298.404 28.0979 294.533 35.8831Z" stroke="#3C1913" stroke-linecap="round" stroke-linejoin="round"/>
<path d="M236.5 30.0016L265.372 13.4074M251.33 21.4897C248.562 13.2479 254.88 2.81863 273.721 8.56268C269.275 27.7509 257.084 28.0079 251.33 21.4897Z" stroke="#3C1913" stroke-linecap="round" stroke-linejoin="round"/>
</svg>
