<svg width="32" height="32" viewBox="0 0 32 32" fill="none" xmlns="http://www.w3.org/2000/svg">
<g id="icon/down">
<path id="Vector" d="M16.2018 18.4687L22.1635 12.5149C22.2214 12.4567 22.2903 12.4108 22.3663 12.3797C22.4423 12.3487 22.5237 12.3332 22.6058 12.3342C22.6878 12.3352 22.7688 12.3526 22.844 12.3855C22.9192 12.4184 22.9871 12.466 23.0435 12.5256C23.1592 12.6474 23.2227 12.8096 23.2207 12.9775C23.2188 13.1455 23.1513 13.3061 23.0328 13.4251L16.6302 19.8189C16.5728 19.8767 16.5043 19.9225 16.429 19.9536C16.3536 19.9847 16.2728 20.0005 16.1913 20C16.1098 19.9995 16.0292 19.9827 15.9542 19.9507C15.8792 19.9187 15.8114 19.8721 15.7547 19.8136L9.18135 13.0838C9.06502 12.9633 9 12.8024 9 12.6349C9 12.4675 9.06502 12.3065 9.18135 12.186C9.23852 12.1272 9.30692 12.0804 9.3825 12.0484C9.45807 12.0165 9.5393 12 9.62135 12C9.70341 12 9.78463 12.0165 9.86021 12.0484C9.93579 12.0804 10.0042 12.1272 10.0613 12.186L16.2018 18.4687Z" fill="#3C1913"/>
</g>
</svg>
