<svg width="48" height="48" viewBox="0 0 48 48" fill="none" xmlns="http://www.w3.org/2000/svg">
<g id="icon/down">
<path id="Vector" d="M28.0072 23.8587L18.7966 14.6357C18.7066 14.5461 18.6355 14.4394 18.5875 14.3219C18.5394 14.2044 18.5155 14.0784 18.517 13.9515C18.5186 13.8245 18.5456 13.6992 18.5964 13.5829C18.6473 13.4665 18.721 13.3616 18.8131 13.2743C19.0016 13.0954 19.2524 12.997 19.5123 13.0001C19.7721 13.0032 20.0206 13.1074 20.2047 13.2908L30.0961 23.1958C30.1855 23.2847 30.2564 23.3905 30.3045 23.5071C30.3526 23.6237 30.377 23.7487 30.3762 23.8748C30.3755 24.0009 30.3496 24.1256 30.3 24.2416C30.2505 24.3576 30.1784 24.4626 30.0878 24.5503L19.6767 34.7194C19.4903 34.8994 19.2413 35 18.9823 35C18.7232 35 18.4742 34.8994 18.2878 34.7194C18.1967 34.631 18.1243 34.5252 18.0749 34.4083C18.0255 34.2913 18 34.1657 18 34.0388C18 33.9118 18.0255 33.7862 18.0749 33.6692C18.1243 33.5523 18.1967 33.4465 18.2878 33.3581L28.0072 23.8587Z" fill="#FBFAF8"/>
</g>
</svg>
