<svg width="32" height="32" viewBox="0 0 32 32" fill="none" xmlns="http://www.w3.org/2000/svg">
<g id="icon/down">
<path id="Vector" d="M16.2018 13.5313L22.1635 19.4851C22.2214 19.5433 22.2903 19.5892 22.3663 19.6203C22.4423 19.6513 22.5237 19.6668 22.6058 19.6658C22.6878 19.6648 22.7688 19.6474 22.844 19.6145C22.9192 19.5816 22.9871 19.534 23.0435 19.4744C23.1592 19.3526 23.2227 19.1904 23.2207 19.0225C23.2188 18.8545 23.1513 18.6939 23.0328 18.5749L16.6302 12.1811C16.5728 12.1233 16.5043 12.0775 16.429 12.0464C16.3536 12.0153 16.2728 11.9995 16.1913 12C16.1098 12.0005 16.0292 12.0173 15.9542 12.0493C15.8792 12.0813 15.8114 12.1279 15.7547 12.1864L9.18135 18.9162C9.06502 19.0367 9 19.1976 9 19.3651C9 19.5325 9.06502 19.6935 9.18135 19.814C9.23852 19.8728 9.30692 19.9196 9.3825 19.9516C9.45807 19.9835 9.5393 20 9.62135 20C9.70341 20 9.78463 19.9835 9.86021 19.9516C9.93579 19.9196 10.0042 19.8728 10.0613 19.814L16.2018 13.5313Z" fill="#3C1913"/>
</g>
</svg>
