<svg width="31" height="34" viewBox="0 0 31 34" fill="none" xmlns="http://www.w3.org/2000/svg">
<g id="Group 62">
<path id="Vector" d="M4.98529 26.1308C4.88508 26.0729 4.82801 25.9709 4.81091 25.8287M4.98529 26.1308L15.487 32.1939C17.5461 33.3828 21.6729 33.8435 24.2884 29.3134C26.9039 24.7833 26.1949 20.9058 25.0152 21.2219M4.98529 26.1308C7.03191 27.3124 19.5581 24.3726 25.0152 21.2219M4.98529 26.1308L4.81091 25.8287M4.81091 25.8287C4.51189 23.3409 16.446 8.54238 23.6711 2.32561C31.3093 -4.24655 29.4812 15.5639 27.3412 19.2703C26.9738 19.9067 26.1464 20.5688 25.0152 21.2219M4.81091 25.8287L1.77814 20.5751M5.04406 26.1979L1 23.5327" stroke="#3C1913"/>
<path id="Vector_2" d="M20.6362 25.8291C20.6333 25.8399 20.6222 25.8458 20.6121 25.8431C20.595 25.8385 20.5848 25.8208 20.5893 25.8037C20.5968 25.7758 20.625 25.7595 20.6529 25.767C20.6979 25.7791 20.7243 25.8249 20.7123 25.8699C20.6929 25.9422 20.6181 25.9853 20.5458 25.966C20.4286 25.9345 20.3589 25.814 20.3904 25.6967C20.4412 25.5071 20.6365 25.3943 20.8261 25.4451C21.133 25.5273 21.3154 25.8433 21.2331 26.1501C21.1 26.6472 20.5888 26.9418 20.0924 26.8088C19.2884 26.5933 18.8108 25.7661 19.0262 24.9621C19.3747 23.6617 20.7132 22.8889 22.0136 23.2374C24.118 23.8012 25.3684 25.967 24.8046 28.0714C23.8921 31.4768 20.3879 33.4994 16.9831 32.5871C11.4733 31.1108 8.20028 25.4408 9.67646 19.9316C12.0651 11.017 21.2388 5.72059 30.1534 8.10925" stroke="#3C1913" stroke-opacity="0.5" stroke-miterlimit="10"/>
</g>
</svg>
