<svg width="48" height="48" viewBox="0 0 48 48" fill="none" xmlns="http://www.w3.org/2000/svg">
<g id="icon/cart">
<path id="Vector" d="M35.5763 15.52C35.5059 15.4355 35.4178 15.3675 35.3182 15.3209C35.2186 15.2742 35.11 15.25 35 15.25H14.625L13.9788 11.6875C13.9055 11.2841 13.693 10.9191 13.3782 10.6564C13.0633 10.3937 12.6663 10.2499 12.2562 10.25H10C9.80109 10.25 9.61032 10.329 9.46967 10.4697C9.32902 10.6103 9.25 10.8011 9.25 11C9.25 11.1989 9.32902 11.3897 9.46967 11.5303C9.61032 11.671 9.80109 11.75 10 11.75H12.25C12.3092 11.749 12.3668 11.7691 12.4126 11.8066C12.4584 11.8442 12.4894 11.8968 12.5 11.955L15.6887 29.4925C15.7899 30.0519 16.0625 30.5661 16.4688 30.9638C15.9782 31.3561 15.6118 31.8823 15.414 32.4786C15.2163 33.0748 15.1955 33.7156 15.3544 34.3234C15.5132 34.9312 15.8448 35.48 16.309 35.9033C16.7732 36.3266 17.3501 36.6062 17.9699 36.7085C18.5898 36.8107 19.2259 36.7311 19.8015 36.4793C20.377 36.2274 20.8672 35.8142 21.2128 35.2896C21.5584 34.765 21.7445 34.1515 21.7487 33.5233C21.7529 32.8951 21.5749 32.2791 21.2362 31.75H27.7638C27.3751 32.3582 27.2 33.0785 27.266 33.7973C27.332 34.5161 27.6354 35.1924 28.1284 35.7197C28.6214 36.2469 29.2758 36.595 29.9886 36.7091C30.7013 36.8232 31.4317 36.6968 32.0646 36.3499C32.6976 36.0029 33.197 35.4551 33.4841 34.7929C33.7713 34.1306 33.8298 33.3917 33.6504 32.6925C33.4711 31.9933 33.0641 31.3738 32.4937 30.9315C31.9232 30.4892 31.2218 30.2495 30.5 30.25H18.3962C18.1035 30.25 17.82 30.1473 17.5953 29.9598C17.3705 29.7723 17.2187 29.5118 17.1663 29.2237L16.7163 26.75H31.5125C32.1565 26.7502 32.7802 26.5243 33.2748 26.1117C33.7693 25.6992 34.1034 25.1261 34.2188 24.4925L35.7375 16.1337C35.7571 16.0259 35.7528 15.915 35.725 15.809C35.6971 15.7029 35.6464 15.6043 35.5763 15.52ZM20.25 33.5C20.25 33.8461 20.1474 34.1845 19.9551 34.4722C19.7628 34.76 19.4895 34.9843 19.1697 35.1168C18.8499 35.2492 18.4981 35.2839 18.1586 35.2164C17.8191 35.1488 17.5073 34.9822 17.2626 34.7374C17.0178 34.4927 16.8511 34.1809 16.7836 33.8414C16.7161 33.5019 16.7508 33.1501 16.8832 32.8303C17.0157 32.5105 17.24 32.2372 17.5278 32.0449C17.8155 31.8526 18.1539 31.75 18.5 31.75C18.9641 31.75 19.4092 31.9344 19.7374 32.2626C20.0656 32.5908 20.25 33.0359 20.25 33.5ZM32.25 33.5C32.25 33.8461 32.1474 34.1845 31.9551 34.4722C31.7628 34.76 31.4895 34.9843 31.1697 35.1168C30.8499 35.2492 30.4981 35.2839 30.1586 35.2164C29.8191 35.1488 29.5073 34.9822 29.2626 34.7374C29.0178 34.4927 28.8512 34.1809 28.7836 33.8414C28.7161 33.5019 28.7508 33.1501 28.8832 32.8303C29.0157 32.5105 29.24 32.2372 29.5278 32.0449C29.8155 31.8526 30.1539 31.75 30.5 31.75C30.9641 31.75 31.4092 31.9344 31.7374 32.2626C32.0656 32.5908 32.25 33.0359 32.25 33.5ZM32.7425 24.2237C32.6901 24.5118 32.5383 24.7723 32.3135 24.9598C32.0887 25.1473 31.8052 25.25 31.5125 25.25H16.4438L14.8987 16.75H34.1012L32.7425 24.2237Z" fill="#3C1913"/>
</g>
</svg>
