<svg width="39" height="40" viewBox="0 0 39 40" fill="none" xmlns="http://www.w3.org/2000/svg">
<path d="M16.1934 19.9131L23.5619 27.2915C23.6339 27.3631 23.6908 27.4485 23.7293 27.5425C23.7677 27.6365 23.7868 27.7373 23.7856 27.8388C23.7844 27.9404 23.7628 28.0407 23.7221 28.1337C23.6814 28.2268 23.6224 28.3107 23.5487 28.3806C23.3979 28.5237 23.1973 28.6024 22.9894 28.5999C22.7815 28.5975 22.5828 28.514 22.4354 28.3674L14.5224 20.4433C14.4508 20.3722 14.3941 20.2876 14.3556 20.1943C14.3171 20.101 14.2976 20.001 14.2982 19.9001C14.2989 19.7992 14.3196 19.6995 14.3592 19.6067C14.3988 19.5139 14.4565 19.4299 14.529 19.3597L22.8579 11.2244C23.007 11.0805 23.2061 11 23.4134 11C23.6207 11 23.8199 11.0805 23.969 11.2244C24.0418 11.2952 24.0997 11.3798 24.1393 11.4734C24.1788 11.5669 24.1992 11.6674 24.1992 11.769C24.1992 11.8706 24.1788 11.9711 24.1393 12.0646C24.0997 12.1582 24.0418 12.2428 23.969 12.3136L16.1934 19.9131Z" fill="#9B4923"/>
</svg>
