<svg width="48" height="48" viewBox="0 0 48 48" fill="none" xmlns="http://www.w3.org/2000/svg">
<g id="icon/hamburger_menu">
<path id="Vector (Stroke)" fill-rule="evenodd" clip-rule="evenodd" d="M12.25 16C12.25 15.5858 12.5858 15.25 13 15.25H35C35.4142 15.25 35.75 15.5858 35.75 16C35.75 16.4142 35.4142 16.75 35 16.75H13C12.5858 16.75 12.25 16.4142 12.25 16ZM12.25 24C12.25 23.5858 12.5858 23.25 13 23.25H35C35.4142 23.25 35.75 23.5858 35.75 24C35.75 24.4142 35.4142 24.75 35 24.75H13C12.5858 24.75 12.25 24.4142 12.25 24ZM12.25 32C12.25 31.5858 12.5858 31.25 13 31.25H35C35.4142 31.25 35.75 31.5858 35.75 32C35.75 32.4142 35.4142 32.75 35 32.75H13C12.5858 32.75 12.25 32.4142 12.25 32Z" fill="#3C1913"/>
</g>
</svg>
