<svg width="32" height="32" viewBox="0 0 32 32" fill="none" xmlns="http://www.w3.org/2000/svg">
<g id="Property 1=3">
<path id="fill" d="M16 26.2178L15.5765 25.8648C6.47059 18.453 4 15.8412 4 11.6059C4 8.07648 6.82353 5.25293 10.3529 5.25293C13.2471 5.25293 14.8706 6.87647 16 8.14707C17.1294 6.87647 18.7529 5.25293 21.6471 5.25293C25.1765 5.25293 28 8.07648 28 11.6059C28 15.8412 25.5294 18.453 16.4235 25.8648L16 26.2178Z" fill="#3C1913"/>
<path id="outline" d="M16 26.2178L15.5765 25.8648C6.47059 18.453 4 15.8412 4 11.6059C4 8.07648 6.82353 5.25293 10.3529 5.25293C13.2471 5.25293 14.8706 6.87647 16 8.14707C17.1294 6.87647 18.7529 5.25293 21.6471 5.25293C25.1765 5.25293 28 8.07648 28 11.6059C28 15.8412 25.5294 18.453 16.4235 25.8648L16 26.2178ZM10.3529 6.6647C7.6 6.6647 5.41176 8.85295 5.41176 11.6059C5.41176 15.2059 7.67059 17.606 16 24.3825C24.3294 17.606 26.5882 15.2059 26.5882 11.6059C26.5882 8.85295 24.4 6.6647 21.6471 6.6647C19.1765 6.6647 17.8353 8.14707 16.7765 9.34707L16 10.2647L15.2235 9.34707C14.1647 8.14707 12.8235 6.6647 10.3529 6.6647Z" fill="#3C1913"/>
</g>
</svg>
