<svg width="32" height="32" viewBox="0 0 32 32" fill="none" xmlns="http://www.w3.org/2000/svg">
<g id="Property 1=1">
<path id="outline" d="M16 24.4706L15.6471 24.1765C8.05882 18 6 15.8235 6 12.2941C6 9.35294 8.35294 7 11.2941 7C13.7059 7 15.0588 8.35294 16 9.41177C16.9412 8.35294 18.2941 7 20.7059 7C23.6471 7 26 9.35294 26 12.2941C26 15.8235 23.9412 18 16.3529 24.1765L16 24.4706ZM11.2941 8.17647C9 8.17647 7.17647 10 7.17647 12.2941C7.17647 15.2941 9.05882 17.2941 16 22.9412C22.9412 17.2941 24.8235 15.2941 24.8235 12.2941C24.8235 10 23 8.17647 20.7059 8.17647C18.6471 8.17647 17.5294 9.41176 16.6471 10.4118L16 11.1765L15.3529 10.4118C14.4706 9.41176 13.3529 8.17647 11.2941 8.17647Z" fill="#3C1913"/>
</g>
</svg>
