<svg width="32" height="32" viewBox="0 0 32 32" fill="none" xmlns="http://www.w3.org/2000/svg">
<g id="Group">
<path id="Vector" d="M16.0007 22.6663C17.7688 22.6663 19.4645 21.964 20.7147 20.7137C21.9649 19.4635 22.6673 17.7678 22.6673 15.9997C22.6673 14.2316 21.9649 12.5359 20.7147 11.2856C19.4645 10.0354 17.7688 9.33301 16.0007 9.33301C14.2325 9.33301 12.5368 10.0354 11.2866 11.2856C10.0364 12.5359 9.33398 14.2316 9.33398 15.9997C9.33398 17.7678 10.0364 19.4635 11.2866 20.7137C12.5368 21.964 14.2325 22.6663 16.0007 22.6663Z" stroke="#394E49" stroke-width="1.8" stroke-linecap="round" stroke-linejoin="round"/>
<path id="Vector_2" d="M1 22.6667V9.33333C1 7.1232 1.87797 5.00358 3.44078 3.44078C5.00358 1.87797 7.1232 1 9.33333 1H22.6667C24.8768 1 26.9964 1.87797 28.5592 3.44078C30.122 5.00358 31 7.1232 31 9.33333V22.6667C31 24.8768 30.122 26.9964 28.5592 28.5592C26.9964 30.122 24.8768 31 22.6667 31H9.33333C7.1232 31 5.00358 30.122 3.44078 28.5592C1.87797 26.9964 1 24.8768 1 22.6667Z" stroke="#394E49" stroke-width="1.8"/>
<path id="Vector_3" d="M25.166 6.85036L25.1827 6.83203" stroke="#394E49" stroke-width="1.8" stroke-linecap="round" stroke-linejoin="round"/>
</g>
</svg>
