<svg width="33" height="26" viewBox="0 0 33 26" fill="none" xmlns="http://www.w3.org/2000/svg">
<g id="iwwa:lock" clip-path="url(#clip0_893_4108)">
<path id="Vector" d="M24.7053 25.0112H8.29231C7.85731 25.0112 7.50391 24.6572 7.50391 24.2228V10.805C7.50391 10.37 7.85791 10.0166 8.29231 10.0166H24.7047C25.1397 10.0166 25.4925 10.3706 25.4925 10.805V24.2228C25.4926 24.3263 25.4723 24.4287 25.4328 24.5243C25.3933 24.6199 25.3353 24.7068 25.2622 24.78C25.1891 24.8532 25.1023 24.9113 25.0067 24.951C24.9112 24.9907 24.8088 25.0111 24.7053 25.0112ZM8.29231 10.616C8.24239 10.6162 8.19456 10.6361 8.15926 10.6714C8.12396 10.7067 8.10406 10.7545 8.10391 10.8044V24.2222C8.10391 24.3248 8.19031 24.4106 8.29231 24.4106H24.7047C24.8067 24.4106 24.8925 24.3242 24.8925 24.2222V10.805C24.8925 10.7551 24.8727 10.7073 24.8375 10.672C24.8023 10.6367 24.7546 10.6168 24.7047 10.6166H8.29231V10.616Z" fill="#3C1913" stroke="#3C1913" stroke-width="0.5"/>
<path id="Vector_2" d="M23.5323 10.6153C23.4527 10.6153 23.3764 10.5837 23.3201 10.5274C23.2639 10.4712 23.2323 10.3948 23.2323 10.3153V8.31908C23.2323 4.60748 20.2131 1.58828 16.5015 1.58828C12.7905 1.58828 9.77188 4.60748 9.77188 8.31908V10.3153C9.77188 10.3948 9.74027 10.4712 9.68401 10.5274C9.62775 10.5837 9.55144 10.6153 9.47188 10.6153C9.39231 10.6153 9.316 10.5837 9.25974 10.5274C9.20348 10.4712 9.17188 10.3948 9.17188 10.3153V8.31908C9.17188 4.27688 12.4599 0.988281 16.5015 0.988281C20.5437 0.988281 23.8323 4.27628 23.8323 8.31908V10.3153C23.8323 10.3948 23.8007 10.4712 23.7444 10.5274C23.6881 10.5837 23.6118 10.6153 23.5323 10.6153Z" fill="#3C1913" stroke="#3C1913" stroke-width="0.5"/>
<g id="Group">
<path id="Vector_3" d="M16.4992 22.1478C16.4197 22.1478 16.3433 22.1162 16.2871 22.06C16.2308 22.0037 16.1992 21.9274 16.1992 21.8478V16.7736C16.1992 16.6941 16.2308 16.6178 16.2871 16.5615C16.3433 16.5052 16.4197 16.4736 16.4992 16.4736C16.5788 16.4736 16.6551 16.5052 16.7114 16.5615C16.7676 16.6178 16.7992 16.6941 16.7992 16.7736V21.8478C16.7992 21.9274 16.7676 22.0037 16.7114 22.06C16.6551 22.1162 16.5788 22.1478 16.4992 22.1478Z" fill="#3C1913" stroke="#3C1913" stroke-width="0.5"/>
<path id="Vector_4" d="M16.5154 18.9819C15.8752 18.9811 15.2615 18.7264 14.809 18.2736C14.3565 17.8208 14.102 17.207 14.1016 16.5669C14.1025 15.9271 14.3572 15.3138 14.8097 14.8616C15.2622 14.4093 15.8756 14.1549 16.5154 14.1543C17.1551 14.1549 17.7684 14.4093 18.2208 14.8616C18.6732 15.3139 18.9278 15.9272 18.9286 16.5669C18.9281 17.2069 18.6737 17.8207 18.2213 18.2734C17.7689 18.7261 17.1554 18.9809 16.5154 18.9819ZM16.5154 14.7543C16.0347 14.7548 15.5738 14.9459 15.2338 15.2856C14.8937 15.6254 14.7024 16.0862 14.7016 16.5669C14.7019 17.048 14.893 17.5092 15.2331 17.8495C15.5731 18.1898 16.0343 18.3813 16.5154 18.3819C16.9963 18.3811 17.4573 18.1896 17.7972 17.8493C18.1372 17.5091 18.3282 17.0479 18.3286 16.5669C18.3279 16.0863 18.1367 15.6255 17.7968 15.2857C17.4568 14.9459 16.996 14.7548 16.5154 14.7543Z" fill="#3C1913" stroke="#3C1913" stroke-width="0.5"/>
</g>
<path id="Vector (Stroke)" d="M31.9485 16.4485C32.4172 15.9799 32.4172 15.2201 31.9485 14.7515C31.4799 14.2828 30.7201 14.2828 30.2515 14.7515L24.4333 20.5696L21.9485 18.0848C21.4799 17.6162 20.7201 17.6162 20.2515 18.0848C19.7828 18.5534 19.7828 19.3132 20.2515 19.7819L23.5848 23.1152C24.0534 23.5838 24.8132 23.5838 25.2819 23.1152L31.9485 16.4485Z" fill="#3C1913" stroke="#FBFAF8" stroke-width="1.2" stroke-linecap="round" stroke-linejoin="round"/>
</g>
<defs>
<clipPath id="clip0_893_4108">
<rect width="32" height="26" fill="white" transform="translate(0.5)"/>
</clipPath>
</defs>
</svg>
