<svg width="20" height="20" viewBox="0 0 20 20" fill="none" xmlns="http://www.w3.org/2000/svg">
<g id="icon/search">
<path id="Vector" d="M18 18L14.1396 14.1396M14.1396 14.1396C14.7999 13.4793 15.3237 12.6953 15.6811 11.8326C16.0385 10.9698 16.2224 10.0451 16.2224 9.11121C16.2224 8.17735 16.0385 7.25264 15.6811 6.38987C15.3237 5.5271 14.7999 4.74316 14.1396 4.08283C13.4793 3.42249 12.6953 2.89868 11.8326 2.54131C10.9698 2.18394 10.0451 2 9.11121 2C8.17735 2 7.25264 2.18394 6.38987 2.54131C5.5271 2.89868 4.74316 3.42249 4.08283 4.08283C2.74921 5.41644 2 7.2252 2 9.11121C2 10.9972 2.74921 12.806 4.08283 14.1396C5.41644 15.4732 7.2252 16.2224 9.11121 16.2224C10.9972 16.2224 12.806 15.4732 14.1396 14.1396Z" stroke="#3C1913" stroke-width="1.6" stroke-linecap="round" stroke-linejoin="round"/>
</g>
</svg>
