<svg width="17" height="16" viewBox="0 0 17 16" fill="none" xmlns="http://www.w3.org/2000/svg">
<g id="state=full">
<path id="Vector" fill-rule="evenodd" clip-rule="evenodd" d="M8.76626 0.261493C8.72795 0.183065 8.66838 0.116972 8.59434 0.0707417C8.5203 0.024511 8.43477 0 8.34749 0C8.2602 0 8.17467 0.024511 8.10063 0.0707417C8.02659 0.116972 7.96702 0.183065 7.92871 0.261493L5.71098 4.77671C5.64281 4.91491 5.51156 5.01091 5.35898 5.03317L0.400407 5.75711C0.0173371 5.81322 -0.135705 6.28626 0.141626 6.55757L3.73024 10.0724C3.84015 10.18 3.8907 10.3354 3.86473 10.4875L3.01743 15.4498C2.95204 15.8333 3.35227 16.126 3.69499 15.9451L8.13044 13.6017C8.26679 13.5298 8.42911 13.5298 8.56545 13.6017L13.0009 15.9451C13.3436 16.126 13.7439 15.8338 13.6785 15.4503L12.8312 10.488C12.8183 10.413 12.8239 10.336 12.8473 10.2637C12.8707 10.1913 12.9113 10.1257 12.9657 10.0724L16.5543 6.55757C16.8311 6.28626 16.6786 5.81322 16.2955 5.75711L11.336 5.03364C11.2609 5.02255 11.1897 4.99336 11.1285 4.9486C11.0672 4.90384 11.0178 4.84484 10.9845 4.77671L8.76626 0.261493Z" fill="#316D61"/>
</g>
</svg>
