<svg width="18" height="16" viewBox="0 0 18 16" fill="none" xmlns="http://www.w3.org/2000/svg">
<g id="state=empty">
<path id="Vector" fill-rule="evenodd" clip-rule="evenodd" d="M9.0428 1.51273L7.23875 5.18575C7.13894 5.38899 6.99114 5.56488 6.80813 5.6982C6.62511 5.83152 6.41238 5.91828 6.18832 5.95096L2.14568 6.54134L5.0739 9.40972C5.2352 9.56778 5.35582 9.76255 5.42544 9.97738C5.49505 10.1922 5.5116 10.4207 5.47366 10.6433L4.78312 14.6883L8.39214 12.7818C8.59265 12.6758 8.81601 12.6204 9.0428 12.6204C9.26959 12.6204 9.49294 12.6758 9.69346 12.7818L13.3025 14.6878L12.6119 10.6438C12.5739 10.4211 12.5904 10.1925 12.66 9.9776C12.7297 9.76268 12.8503 9.56783 13.0117 9.40972L15.9404 6.54134L11.8973 5.95096C11.6732 5.91828 11.4605 5.83152 11.2775 5.6982C11.0945 5.56488 10.9467 5.38899 10.8468 5.18575L9.0428 1.51227V1.51273ZM9.46158 0.261493C9.42326 0.183065 9.36369 0.116972 9.28965 0.0707417C9.21562 0.024511 9.13008 0 9.0428 0C8.95551 0 8.86998 0.024511 8.79594 0.0707417C8.7219 0.116972 8.66233 0.183065 8.62402 0.261493L6.40629 4.77671C6.33812 4.91491 6.20687 5.01091 6.0543 5.03317L1.09572 5.75711C0.71265 5.81322 0.559607 6.28626 0.836939 6.55757L4.42555 10.0724C4.53547 10.18 4.58602 10.3354 4.56004 10.4875L3.71275 15.4498C3.64735 15.8333 4.04758 16.126 4.39031 15.9451L8.82576 13.6017C8.9621 13.5298 9.12442 13.5298 9.26077 13.6017L13.6962 15.9451C14.0389 16.126 14.4392 15.8338 14.3738 15.4503L13.5265 10.488C13.5137 10.413 13.5192 10.336 13.5426 10.2637C13.566 10.1913 13.6066 10.1257 13.661 10.0724L17.2496 6.55757C17.5265 6.28626 17.3739 5.81322 16.9908 5.75711L12.0313 5.03364C11.9563 5.02255 11.885 4.99336 11.8238 4.9486C11.7625 4.90384 11.7131 4.84484 11.6798 4.77671L9.46158 0.261493Z" fill="#3C1913"/>
</g>
</svg>
