<svg width="48" height="48" viewBox="0 0 48 48" fill="none" xmlns="http://www.w3.org/2000/svg">
<g id="icon/up">
<path id="Vector" d="M24.1413 19.9928L33.3643 29.2034C33.4539 29.2934 33.5606 29.3645 33.6781 29.4125C33.7956 29.4606 33.9216 29.4845 34.0485 29.483C34.1755 29.4814 34.3008 29.4544 34.4171 29.4036C34.5335 29.3527 34.6384 29.279 34.7257 29.1869C34.9046 28.9984 35.003 28.7476 34.9999 28.4877C34.9968 28.2279 34.8926 27.9794 34.7092 27.7953L24.8042 17.9039C24.7153 17.8145 24.6095 17.7436 24.4929 17.6955C24.3763 17.6474 24.2513 17.623 24.1252 17.6238C23.9991 17.6245 23.8744 17.6504 23.7584 17.7C23.6424 17.7495 23.5374 17.8216 23.4497 17.9122L13.2806 28.3233C13.1006 28.5097 13 28.7587 13 29.0177C13 29.2768 13.1006 29.5258 13.2806 29.7122C13.369 29.8033 13.4748 29.8757 13.5917 29.9251C13.7087 29.9745 13.8343 30 13.9612 30C14.0882 30 14.2138 29.9745 14.3308 29.9251C14.4477 29.8757 14.5535 29.8033 14.6419 29.7122L24.1413 19.9928Z" fill="#FBFAF8"/>
</g>
</svg>
