<svg width="48" height="48" viewBox="0 0 48 48" fill="none" xmlns="http://www.w3.org/2000/svg">
<g id="icon/user">
<path id="Vector" d="M24 11.25C21.4783 11.25 19.0132 11.9978 16.9165 13.3988C14.8198 14.7998 13.1856 16.791 12.2205 19.1208C11.2555 21.4505 11.003 24.0141 11.495 26.4874C11.987 28.9607 13.2013 31.2325 14.9844 33.0156C16.7675 34.7987 19.0393 36.0131 21.5126 36.505C23.9859 36.997 26.5495 36.7445 28.8792 35.7795C31.209 34.8144 33.2003 33.1802 34.6012 31.0835C36.0022 28.9868 36.75 26.5217 36.75 24C36.746 20.6197 35.4015 17.379 33.0112 14.9888C30.621 12.5985 27.3803 11.254 24 11.25ZM16.93 32.75C17.6635 31.5303 18.7 30.5212 19.9389 29.8206C21.1777 29.12 22.5768 28.7518 24 28.7518C25.4232 28.7518 26.8223 29.12 28.0611 29.8206C29.3 30.5212 30.3365 31.5303 31.07 32.75C29.0705 34.3714 26.5743 35.2563 24 35.2563C21.4257 35.2563 18.9296 34.3714 16.93 32.75ZM19.75 23C19.75 22.1594 19.9993 21.3377 20.4663 20.6388C20.9333 19.9399 21.597 19.3952 22.3736 19.0735C23.1502 18.7518 24.0047 18.6677 24.8291 18.8317C25.6536 18.9956 26.4108 19.4004 27.0052 19.9948C27.5996 20.5892 28.0044 21.3464 28.1683 22.1709C28.3323 22.9953 28.2482 23.8498 27.9265 24.6264C27.6048 25.403 27.0601 26.0668 26.3612 26.5337C25.6623 27.0007 24.8406 27.25 24 27.25C22.8728 27.25 21.7918 26.8022 20.9948 26.0052C20.1978 25.2082 19.75 24.1272 19.75 23ZM32.1888 31.705C31.0103 29.8727 29.2489 28.4908 27.1888 27.7825C28.216 27.0983 28.9959 26.1016 29.413 24.9399C29.8301 23.7783 29.8623 22.5132 29.5049 21.3318C29.1475 20.1504 28.4194 19.1153 27.4282 18.3797C26.4371 17.644 25.2356 17.2469 24.0013 17.2469C22.767 17.2469 21.5654 17.644 20.5743 18.3797C19.5832 19.1153 18.8551 20.1504 18.4976 21.3318C18.1402 22.5132 18.1724 23.7783 18.5895 24.9399C19.0066 26.1016 19.7865 27.0983 20.8138 27.7825C18.7536 28.4908 16.9922 29.8727 15.8138 31.705C14.3073 30.1064 13.3018 28.1017 12.9213 25.9382C12.5408 23.7748 12.802 21.5474 13.6726 19.5307C14.5433 17.514 15.9852 15.7962 17.8207 14.5895C19.6561 13.3827 21.8046 12.7396 24.0013 12.7396C26.1979 12.7396 28.3464 13.3827 30.1818 14.5895C32.0173 15.7962 33.4592 17.514 34.3299 19.5307C35.2005 21.5474 35.4617 23.7748 35.0812 25.9382C34.7007 28.1017 33.6952 30.1064 32.1888 31.705Z" fill="#3C1913"/>
</g>
</svg>
