<svg width="32" height="32" viewBox="0 0 32 32" fill="none" xmlns="http://www.w3.org/2000/svg">
<g id="icon/whatsapp" clip-path="url(#clip0_1235_7452)">
<path id="Vector" d="M25.0754 19.1012L25.0754 19.1012C25.1958 19.1615 25.2971 19.2541 25.3679 19.3687C25.4386 19.4833 25.476 19.6154 25.476 19.7501M25.0754 19.1012L12.2508 6.525C10.7325 6.52505 9.27636 7.12821 8.20276 8.20181C7.12912 9.27546 6.52595 10.7316 6.52595 12.25V12.2501C6.5297 15.7564 7.92424 19.118 10.4036 21.5974C12.8829 24.0767 16.2445 25.4712 19.7508 25.475H19.7509C21.2693 25.475 22.7255 24.8718 23.7991 23.7982C24.8728 22.7246 25.4759 21.2684 25.476 19.7501M25.0754 19.1012L20.0754 16.6012L20.0752 16.6011M25.0754 19.1012L20.0752 16.6011M25.476 19.7501L25.3759 19.75H25.476C25.476 19.75 25.476 19.75 25.476 19.7501ZM20.0752 16.6011C19.9611 16.5442 19.8339 16.5185 19.7067 16.5264C19.5794 16.5344 19.4564 16.5758 19.3502 16.6464L19.3501 16.6465M20.0752 16.6011L19.3501 16.6465M19.3501 16.6465L16.7978 18.3491C15.4297 17.6791 14.3235 16.5728 13.6534 15.2048L15.356 12.6524L15.3561 12.6523M19.3501 16.6465L15.3561 12.6523M15.3561 12.6523C15.4267 12.5461 15.4681 12.4232 15.4761 12.2959C15.484 12.1686 15.4583 12.0414 15.4014 11.9273L15.4013 11.9272M15.3561 12.6523L15.4013 11.9272M15.4013 11.9272L12.9014 6.92738M15.4013 11.9272L12.9014 6.92738M16.001 0.275L16.001 0.275C18.4011 0.275805 20.7692 0.825998 22.9238 1.88342C25.0784 2.94085 26.9623 4.47745 28.4313 6.37549C29.9003 8.27354 30.9153 10.4827 31.3986 12.8336C31.8819 15.1845 31.8206 17.6149 31.2195 19.9385C30.6184 22.2621 29.4933 24.4173 27.9306 26.2389C26.3678 28.0605 24.4088 29.5002 22.2036 30.4477C19.9985 31.3953 17.6057 31.8254 15.2086 31.7053C12.8262 31.5859 10.5023 30.926 8.41286 29.7759L2.8779 31.6214C2.52991 31.7375 2.15648 31.7543 1.79946 31.6701C1.44244 31.5858 1.11594 31.4038 0.856551 31.1444C0.597164 30.885 0.415143 30.5585 0.330888 30.2015C0.246633 29.8445 0.263474 29.471 0.379523 29.1231M16.001 0.275L0.379523 29.1231M16.001 0.275C13.2634 0.274491 10.5731 0.988676 8.1962 2.34691M16.001 0.275L8.1962 2.34691M0.379523 29.1231H0.379523L0.379525 29.1231M0.379523 29.1231L0.379525 29.1231M0.379525 29.1231L2.22502 23.5881M0.379525 29.1231L2.22502 23.5881M12.9014 6.92738C12.8413 6.80631 12.7485 6.70448 12.6335 6.63337C12.5186 6.56231 12.3861 6.52477 12.251 6.525L12.9014 6.92738ZM8.1962 2.34691C5.81932 3.70514 3.83819 5.66037 2.4488 8.01917M8.1962 2.34691L2.4488 8.01917M2.4488 8.01917C1.05941 10.378 0.309885 13.0586 0.27437 15.796M2.4488 8.01917L0.27437 15.796M0.27437 15.796C0.239047 18.5187 0.911317 21.2036 2.22502 23.5881M0.27437 15.796L2.22502 23.5881M12.1584 15.413L12.1588 15.4138C12.9993 17.412 14.5889 19.0016 16.5872 19.8422L16.5876 19.8423C16.6979 19.8882 16.8179 19.906 16.9367 19.8944C17.0555 19.8827 17.1696 19.8418 17.2688 19.7755C17.2689 19.7754 17.269 19.7753 17.2691 19.7753L19.805 18.0888L24.0058 20.1885C23.8986 21.2288 23.4135 22.1946 22.6412 22.9021C21.8523 23.6249 20.821 24.0256 19.7511 24.025C16.6291 24.0217 13.636 22.7801 11.4284 20.5725C9.22087 18.365 7.97923 15.3718 7.97595 12.2499C7.97579 11.18 8.37684 10.1489 9.0999 9.36022C9.8077 8.58823 10.7737 8.10351 11.814 7.99664L13.9137 12.1976L12.2273 14.7333C12.2273 14.7334 12.2272 14.7334 12.2272 14.7335C12.1608 14.8324 12.1198 14.946 12.1078 15.0645C12.0958 15.1831 12.1132 15.3028 12.1584 15.413ZM8.85256 28.3587L8.85241 28.3586C8.74229 28.2953 8.61758 28.2616 8.49052 28.2609H8.49008C8.41167 28.2609 8.33379 28.2738 8.25957 28.299C8.25949 28.299 8.2594 28.2991 8.25932 28.2991L2.41933 30.2458L2.45095 30.3406L2.41932 30.2458C2.32681 30.2766 2.22754 30.2811 2.13264 30.2587C2.03774 30.2363 1.95095 30.1879 1.88199 30.119C1.81304 30.05 1.76466 29.9632 1.74226 29.8683C1.71986 29.7734 1.72434 29.6741 1.75519 29.5816L1.66033 29.55L1.75519 29.5816L3.70204 23.7411C3.73461 23.6437 3.74613 23.5405 3.73581 23.4383C3.7255 23.3361 3.6936 23.2373 3.64222 23.1484L3.6422 23.1484C2.06838 20.428 1.43633 17.2642 1.84409 14.1479C2.25185 11.0316 3.67663 8.13704 5.89739 5.91315C8.11816 3.68926 11.0108 2.26041 14.1265 1.84827C17.2422 1.43613 20.4068 2.06374 23.1294 3.63373C25.852 5.20372 27.9804 7.62832 29.1844 10.5314C30.3884 13.4345 30.6007 16.6538 29.7883 19.6898C28.976 22.7258 27.1844 25.4089 24.6915 27.3228C22.1986 29.2367 19.1438 30.2744 16.0009 30.275C13.4911 30.2758 11.0255 29.6148 8.85256 28.3587Z" fill="#394E49" stroke="#394E49" stroke-width="0.2"/>
</g>
<defs>
<clipPath id="clip0_1235_7452">
<rect width="32" height="32" fill="white"/>
</clipPath>
</defs>
</svg>
