<svg width="20" height="20" viewBox="0 0 20 20" fill="none" xmlns="http://www.w3.org/2000/svg">
<g id="icon/X">
<path id="Vector" d="M17.1471 16.3526C17.2024 16.4041 17.2467 16.4662 17.2775 16.5352C17.3082 16.6042 17.3248 16.6787 17.3261 16.7542C17.3274 16.8298 17.3135 16.9048 17.2852 16.9748C17.2569 17.0449 17.2148 17.1085 17.1614 17.1619C17.108 17.2153 17.0444 17.2574 16.9743 17.2857C16.9043 17.314 16.8293 17.3279 16.7537 17.3266C16.6782 17.3252 16.6037 17.3087 16.5347 17.278C16.4657 17.2472 16.4036 17.2029 16.3521 17.1476L9.99964 10.7961L3.64714 17.1476C3.54051 17.247 3.39947 17.3011 3.25375 17.2985C3.10802 17.2959 2.96898 17.2369 2.86592 17.1338C2.76286 17.0308 2.70383 16.8917 2.70126 16.746C2.69869 16.6003 2.75278 16.4593 2.85214 16.3526L9.2037 10.0001L2.85214 3.64763C2.75278 3.541 2.69869 3.39996 2.70126 3.25424C2.70383 3.10851 2.76286 2.96947 2.86592 2.86641C2.96898 2.76335 3.10802 2.70432 3.25375 2.70175C3.39947 2.69918 3.54051 2.75327 3.64714 2.85263L9.99964 9.20419L16.3521 2.85263C16.4588 2.75327 16.5998 2.69918 16.7455 2.70175C16.8913 2.70432 17.0303 2.76335 17.1334 2.86641C17.2364 2.96947 17.2955 3.10851 17.298 3.25424C17.3006 3.39996 17.2465 3.541 17.1471 3.64763L10.7956 10.0001L17.1471 16.3526Z" fill="#3C1913"/>
</g>
</svg>
